<mxfile host="app.diagrams.net" modified="2021-05-23T23:58:57.265Z" agent="5.0 (X11; Linux x86_64) AppleWebKit/537.36 (KHTML, like Gecko) Chrome/90.0.4430.93 Safari/537.36" etag="gh9i6BLvSi04PqVYhtwi" version="14.7.0" type="github">
  <diagram id="R2lEEEUBdFMjLlhIrx00" name="Page-1">
    <mxGraphModel dx="883" dy="556" grid="1" gridSize="10" guides="1" tooltips="1" connect="1" arrows="1" fold="1" page="1" pageScale="1" pageWidth="850" pageHeight="1100" math="0" shadow="0" extFonts="Permanent Marker^https://fonts.googleapis.com/css?family=Permanent+Marker">
      <root>
        <mxCell id="0" />
        <mxCell id="1" parent="0" />
        <mxCell id="rfaRZoywwaGYxJj0P569-1" value="Users" style="shape=table;startSize=30;container=1;collapsible=1;childLayout=tableLayout;fixedRows=1;rowLines=0;fontStyle=1;align=center;resizeLast=1;" vertex="1" parent="1">
          <mxGeometry x="100" y="170" width="220" height="250" as="geometry" />
        </mxCell>
        <mxCell id="rfaRZoywwaGYxJj0P569-2" value="" style="shape=partialRectangle;collapsible=0;dropTarget=0;pointerEvents=0;fillColor=none;top=0;left=0;bottom=1;right=0;points=[[0,0.5],[1,0.5]];portConstraint=eastwest;" vertex="1" parent="rfaRZoywwaGYxJj0P569-1">
          <mxGeometry y="30" width="220" height="30" as="geometry" />
        </mxCell>
        <mxCell id="rfaRZoywwaGYxJj0P569-3" value="PK" style="shape=partialRectangle;connectable=0;fillColor=none;top=0;left=0;bottom=0;right=0;fontStyle=1;overflow=hidden;" vertex="1" parent="rfaRZoywwaGYxJj0P569-2">
          <mxGeometry width="30" height="30" as="geometry" />
        </mxCell>
        <mxCell id="rfaRZoywwaGYxJj0P569-4" value="UserId Int NOT NULL UNIQUE" style="shape=partialRectangle;connectable=0;fillColor=none;top=0;left=0;bottom=0;right=0;align=left;spacingLeft=6;fontStyle=5;overflow=hidden;" vertex="1" parent="rfaRZoywwaGYxJj0P569-2">
          <mxGeometry x="30" width="190" height="30" as="geometry" />
        </mxCell>
        <mxCell id="rfaRZoywwaGYxJj0P569-5" value="" style="shape=partialRectangle;collapsible=0;dropTarget=0;pointerEvents=0;fillColor=none;top=0;left=0;bottom=0;right=0;points=[[0,0.5],[1,0.5]];portConstraint=eastwest;" vertex="1" parent="rfaRZoywwaGYxJj0P569-1">
          <mxGeometry y="60" width="220" height="30" as="geometry" />
        </mxCell>
        <mxCell id="rfaRZoywwaGYxJj0P569-6" value="" style="shape=partialRectangle;connectable=0;fillColor=none;top=0;left=0;bottom=0;right=0;editable=1;overflow=hidden;" vertex="1" parent="rfaRZoywwaGYxJj0P569-5">
          <mxGeometry width="30" height="30" as="geometry" />
        </mxCell>
        <mxCell id="rfaRZoywwaGYxJj0P569-7" value="name varchar(100) NOT NULL" style="shape=partialRectangle;connectable=0;fillColor=none;top=0;left=0;bottom=0;right=0;align=left;spacingLeft=6;overflow=hidden;" vertex="1" parent="rfaRZoywwaGYxJj0P569-5">
          <mxGeometry x="30" width="190" height="30" as="geometry" />
        </mxCell>
        <mxCell id="rfaRZoywwaGYxJj0P569-8" value="" style="shape=partialRectangle;collapsible=0;dropTarget=0;pointerEvents=0;fillColor=none;top=0;left=0;bottom=0;right=0;points=[[0,0.5],[1,0.5]];portConstraint=eastwest;" vertex="1" parent="rfaRZoywwaGYxJj0P569-1">
          <mxGeometry y="90" width="220" height="30" as="geometry" />
        </mxCell>
        <mxCell id="rfaRZoywwaGYxJj0P569-9" value="" style="shape=partialRectangle;connectable=0;fillColor=none;top=0;left=0;bottom=0;right=0;editable=1;overflow=hidden;" vertex="1" parent="rfaRZoywwaGYxJj0P569-8">
          <mxGeometry width="30" height="30" as="geometry" />
        </mxCell>
        <mxCell id="rfaRZoywwaGYxJj0P569-10" value="address varchar(500) NOT NULL" style="shape=partialRectangle;connectable=0;fillColor=none;top=0;left=0;bottom=0;right=0;align=left;spacingLeft=6;overflow=hidden;" vertex="1" parent="rfaRZoywwaGYxJj0P569-8">
          <mxGeometry x="30" width="190" height="30" as="geometry" />
        </mxCell>
        <mxCell id="rfaRZoywwaGYxJj0P569-11" value="" style="shape=partialRectangle;collapsible=0;dropTarget=0;pointerEvents=0;fillColor=none;top=0;left=0;bottom=0;right=0;points=[[0,0.5],[1,0.5]];portConstraint=eastwest;" vertex="1" parent="rfaRZoywwaGYxJj0P569-1">
          <mxGeometry y="120" width="220" height="30" as="geometry" />
        </mxCell>
        <mxCell id="rfaRZoywwaGYxJj0P569-12" value="" style="shape=partialRectangle;connectable=0;fillColor=none;top=0;left=0;bottom=0;right=0;editable=1;overflow=hidden;" vertex="1" parent="rfaRZoywwaGYxJj0P569-11">
          <mxGeometry width="30" height="30" as="geometry" />
        </mxCell>
        <mxCell id="rfaRZoywwaGYxJj0P569-13" value="phoneNumber int NOT NULL" style="shape=partialRectangle;connectable=0;fillColor=none;top=0;left=0;bottom=0;right=0;align=left;spacingLeft=6;overflow=hidden;" vertex="1" parent="rfaRZoywwaGYxJj0P569-11">
          <mxGeometry x="30" width="190" height="30" as="geometry" />
        </mxCell>
        <mxCell id="rfaRZoywwaGYxJj0P569-92" value="" style="shape=partialRectangle;collapsible=0;dropTarget=0;pointerEvents=0;fillColor=none;top=0;left=0;bottom=0;right=0;points=[[0,0.5],[1,0.5]];portConstraint=eastwest;" vertex="1" parent="rfaRZoywwaGYxJj0P569-1">
          <mxGeometry y="150" width="220" height="30" as="geometry" />
        </mxCell>
        <mxCell id="rfaRZoywwaGYxJj0P569-93" value="" style="shape=partialRectangle;connectable=0;fillColor=none;top=0;left=0;bottom=0;right=0;editable=1;overflow=hidden;" vertex="1" parent="rfaRZoywwaGYxJj0P569-92">
          <mxGeometry width="30" height="30" as="geometry" />
        </mxCell>
        <mxCell id="rfaRZoywwaGYxJj0P569-94" value="email varchar(100) NOT NULL" style="shape=partialRectangle;connectable=0;fillColor=none;top=0;left=0;bottom=0;right=0;align=left;spacingLeft=6;overflow=hidden;" vertex="1" parent="rfaRZoywwaGYxJj0P569-92">
          <mxGeometry x="30" width="190" height="30" as="geometry" />
        </mxCell>
        <mxCell id="rfaRZoywwaGYxJj0P569-95" value="" style="shape=partialRectangle;collapsible=0;dropTarget=0;pointerEvents=0;fillColor=none;top=0;left=0;bottom=0;right=0;points=[[0,0.5],[1,0.5]];portConstraint=eastwest;" vertex="1" parent="rfaRZoywwaGYxJj0P569-1">
          <mxGeometry y="180" width="220" height="30" as="geometry" />
        </mxCell>
        <mxCell id="rfaRZoywwaGYxJj0P569-96" value="" style="shape=partialRectangle;connectable=0;fillColor=none;top=0;left=0;bottom=0;right=0;editable=1;overflow=hidden;" vertex="1" parent="rfaRZoywwaGYxJj0P569-95">
          <mxGeometry width="30" height="30" as="geometry" />
        </mxCell>
        <mxCell id="rfaRZoywwaGYxJj0P569-97" value="username varchar(20) NOT NULL" style="shape=partialRectangle;connectable=0;fillColor=none;top=0;left=0;bottom=0;right=0;align=left;spacingLeft=6;overflow=hidden;" vertex="1" parent="rfaRZoywwaGYxJj0P569-95">
          <mxGeometry x="30" width="190" height="30" as="geometry" />
        </mxCell>
        <mxCell id="rfaRZoywwaGYxJj0P569-98" value="" style="shape=partialRectangle;collapsible=0;dropTarget=0;pointerEvents=0;fillColor=none;top=0;left=0;bottom=0;right=0;points=[[0,0.5],[1,0.5]];portConstraint=eastwest;" vertex="1" parent="rfaRZoywwaGYxJj0P569-1">
          <mxGeometry y="210" width="220" height="30" as="geometry" />
        </mxCell>
        <mxCell id="rfaRZoywwaGYxJj0P569-99" value="" style="shape=partialRectangle;connectable=0;fillColor=none;top=0;left=0;bottom=0;right=0;editable=1;overflow=hidden;" vertex="1" parent="rfaRZoywwaGYxJj0P569-98">
          <mxGeometry width="30" height="30" as="geometry" />
        </mxCell>
        <mxCell id="rfaRZoywwaGYxJj0P569-100" value="password varchar(100) NOT NULL" style="shape=partialRectangle;connectable=0;fillColor=none;top=0;left=0;bottom=0;right=0;align=left;spacingLeft=6;overflow=hidden;" vertex="1" parent="rfaRZoywwaGYxJj0P569-98">
          <mxGeometry x="30" width="190" height="30" as="geometry" />
        </mxCell>
        <mxCell id="rfaRZoywwaGYxJj0P569-14" value="Carts" style="shape=table;startSize=30;container=1;collapsible=1;childLayout=tableLayout;fixedRows=1;rowLines=0;fontStyle=1;align=center;resizeLast=1;" vertex="1" parent="1">
          <mxGeometry x="380" y="170" width="210" height="190" as="geometry" />
        </mxCell>
        <mxCell id="rfaRZoywwaGYxJj0P569-15" value="" style="shape=partialRectangle;collapsible=0;dropTarget=0;pointerEvents=0;fillColor=none;top=0;left=0;bottom=1;right=0;points=[[0,0.5],[1,0.5]];portConstraint=eastwest;" vertex="1" parent="rfaRZoywwaGYxJj0P569-14">
          <mxGeometry y="30" width="210" height="30" as="geometry" />
        </mxCell>
        <mxCell id="rfaRZoywwaGYxJj0P569-16" value="PK" style="shape=partialRectangle;connectable=0;fillColor=none;top=0;left=0;bottom=0;right=0;fontStyle=1;overflow=hidden;" vertex="1" parent="rfaRZoywwaGYxJj0P569-15">
          <mxGeometry width="30" height="30" as="geometry" />
        </mxCell>
        <mxCell id="rfaRZoywwaGYxJj0P569-17" value="CartId int NOT NULL UNIQUE" style="shape=partialRectangle;connectable=0;fillColor=none;top=0;left=0;bottom=0;right=0;align=left;spacingLeft=6;fontStyle=5;overflow=hidden;" vertex="1" parent="rfaRZoywwaGYxJj0P569-15">
          <mxGeometry x="30" width="180" height="30" as="geometry" />
        </mxCell>
        <mxCell id="rfaRZoywwaGYxJj0P569-18" value="" style="shape=partialRectangle;collapsible=0;dropTarget=0;pointerEvents=0;fillColor=none;top=0;left=0;bottom=0;right=0;points=[[0,0.5],[1,0.5]];portConstraint=eastwest;" vertex="1" parent="rfaRZoywwaGYxJj0P569-14">
          <mxGeometry y="60" width="210" height="30" as="geometry" />
        </mxCell>
        <mxCell id="rfaRZoywwaGYxJj0P569-19" value="" style="shape=partialRectangle;connectable=0;fillColor=none;top=0;left=0;bottom=0;right=0;editable=1;overflow=hidden;" vertex="1" parent="rfaRZoywwaGYxJj0P569-18">
          <mxGeometry width="30" height="30" as="geometry" />
        </mxCell>
        <mxCell id="rfaRZoywwaGYxJj0P569-20" value="Id_user int NOT NULL " style="shape=partialRectangle;connectable=0;fillColor=none;top=0;left=0;bottom=0;right=0;align=left;spacingLeft=6;overflow=hidden;" vertex="1" parent="rfaRZoywwaGYxJj0P569-18">
          <mxGeometry x="30" width="180" height="30" as="geometry" />
        </mxCell>
        <mxCell id="rfaRZoywwaGYxJj0P569-21" value="" style="shape=partialRectangle;collapsible=0;dropTarget=0;pointerEvents=0;fillColor=none;top=0;left=0;bottom=0;right=0;points=[[0,0.5],[1,0.5]];portConstraint=eastwest;" vertex="1" parent="rfaRZoywwaGYxJj0P569-14">
          <mxGeometry y="90" width="210" height="30" as="geometry" />
        </mxCell>
        <mxCell id="rfaRZoywwaGYxJj0P569-22" value="" style="shape=partialRectangle;connectable=0;fillColor=none;top=0;left=0;bottom=0;right=0;editable=1;overflow=hidden;" vertex="1" parent="rfaRZoywwaGYxJj0P569-21">
          <mxGeometry width="30" height="30" as="geometry" />
        </mxCell>
        <mxCell id="rfaRZoywwaGYxJj0P569-23" value="Id_product int NOT NULL" style="shape=partialRectangle;connectable=0;fillColor=none;top=0;left=0;bottom=0;right=0;align=left;spacingLeft=6;overflow=hidden;" vertex="1" parent="rfaRZoywwaGYxJj0P569-21">
          <mxGeometry x="30" width="180" height="30" as="geometry" />
        </mxCell>
        <mxCell id="rfaRZoywwaGYxJj0P569-24" value="" style="shape=partialRectangle;collapsible=0;dropTarget=0;pointerEvents=0;fillColor=none;top=0;left=0;bottom=0;right=0;points=[[0,0.5],[1,0.5]];portConstraint=eastwest;" vertex="1" parent="rfaRZoywwaGYxJj0P569-14">
          <mxGeometry y="120" width="210" height="30" as="geometry" />
        </mxCell>
        <mxCell id="rfaRZoywwaGYxJj0P569-25" value="" style="shape=partialRectangle;connectable=0;fillColor=none;top=0;left=0;bottom=0;right=0;editable=1;overflow=hidden;" vertex="1" parent="rfaRZoywwaGYxJj0P569-24">
          <mxGeometry width="30" height="30" as="geometry" />
        </mxCell>
        <mxCell id="rfaRZoywwaGYxJj0P569-26" value="productQuantity int NOT NULL" style="shape=partialRectangle;connectable=0;fillColor=none;top=0;left=0;bottom=0;right=0;align=left;spacingLeft=6;overflow=hidden;" vertex="1" parent="rfaRZoywwaGYxJj0P569-24">
          <mxGeometry x="30" width="180" height="30" as="geometry" />
        </mxCell>
        <mxCell id="rfaRZoywwaGYxJj0P569-143" value="" style="shape=partialRectangle;collapsible=0;dropTarget=0;pointerEvents=0;fillColor=none;top=0;left=0;bottom=0;right=0;points=[[0,0.5],[1,0.5]];portConstraint=eastwest;" vertex="1" parent="rfaRZoywwaGYxJj0P569-14">
          <mxGeometry y="150" width="210" height="30" as="geometry" />
        </mxCell>
        <mxCell id="rfaRZoywwaGYxJj0P569-144" value="" style="shape=partialRectangle;connectable=0;fillColor=none;top=0;left=0;bottom=0;right=0;editable=1;overflow=hidden;" vertex="1" parent="rfaRZoywwaGYxJj0P569-143">
          <mxGeometry width="30" height="30" as="geometry" />
        </mxCell>
        <mxCell id="rfaRZoywwaGYxJj0P569-145" value="cartTotal int NOT NULL" style="shape=partialRectangle;connectable=0;fillColor=none;top=0;left=0;bottom=0;right=0;align=left;spacingLeft=6;overflow=hidden;" vertex="1" parent="rfaRZoywwaGYxJj0P569-143">
          <mxGeometry x="30" width="180" height="30" as="geometry" />
        </mxCell>
        <mxCell id="rfaRZoywwaGYxJj0P569-27" value="Table" style="shape=table;startSize=30;container=1;collapsible=1;childLayout=tableLayout;fixedRows=1;rowLines=0;fontStyle=1;align=center;resizeLast=1;" vertex="1" parent="1">
          <mxGeometry x="110" y="440" width="180" height="160" as="geometry" />
        </mxCell>
        <mxCell id="rfaRZoywwaGYxJj0P569-28" value="" style="shape=partialRectangle;collapsible=0;dropTarget=0;pointerEvents=0;fillColor=none;top=0;left=0;bottom=1;right=0;points=[[0,0.5],[1,0.5]];portConstraint=eastwest;" vertex="1" parent="rfaRZoywwaGYxJj0P569-27">
          <mxGeometry y="30" width="180" height="30" as="geometry" />
        </mxCell>
        <mxCell id="rfaRZoywwaGYxJj0P569-29" value="PK" style="shape=partialRectangle;connectable=0;fillColor=none;top=0;left=0;bottom=0;right=0;fontStyle=1;overflow=hidden;" vertex="1" parent="rfaRZoywwaGYxJj0P569-28">
          <mxGeometry width="30" height="30" as="geometry" />
        </mxCell>
        <mxCell id="rfaRZoywwaGYxJj0P569-30" value="UniqueID" style="shape=partialRectangle;connectable=0;fillColor=none;top=0;left=0;bottom=0;right=0;align=left;spacingLeft=6;fontStyle=5;overflow=hidden;" vertex="1" parent="rfaRZoywwaGYxJj0P569-28">
          <mxGeometry x="30" width="150" height="30" as="geometry" />
        </mxCell>
        <mxCell id="rfaRZoywwaGYxJj0P569-31" value="" style="shape=partialRectangle;collapsible=0;dropTarget=0;pointerEvents=0;fillColor=none;top=0;left=0;bottom=0;right=0;points=[[0,0.5],[1,0.5]];portConstraint=eastwest;" vertex="1" parent="rfaRZoywwaGYxJj0P569-27">
          <mxGeometry y="60" width="180" height="30" as="geometry" />
        </mxCell>
        <mxCell id="rfaRZoywwaGYxJj0P569-32" value="" style="shape=partialRectangle;connectable=0;fillColor=none;top=0;left=0;bottom=0;right=0;editable=1;overflow=hidden;" vertex="1" parent="rfaRZoywwaGYxJj0P569-31">
          <mxGeometry width="30" height="30" as="geometry" />
        </mxCell>
        <mxCell id="rfaRZoywwaGYxJj0P569-33" value="Row 1" style="shape=partialRectangle;connectable=0;fillColor=none;top=0;left=0;bottom=0;right=0;align=left;spacingLeft=6;overflow=hidden;" vertex="1" parent="rfaRZoywwaGYxJj0P569-31">
          <mxGeometry x="30" width="150" height="30" as="geometry" />
        </mxCell>
        <mxCell id="rfaRZoywwaGYxJj0P569-34" value="" style="shape=partialRectangle;collapsible=0;dropTarget=0;pointerEvents=0;fillColor=none;top=0;left=0;bottom=0;right=0;points=[[0,0.5],[1,0.5]];portConstraint=eastwest;" vertex="1" parent="rfaRZoywwaGYxJj0P569-27">
          <mxGeometry y="90" width="180" height="30" as="geometry" />
        </mxCell>
        <mxCell id="rfaRZoywwaGYxJj0P569-35" value="" style="shape=partialRectangle;connectable=0;fillColor=none;top=0;left=0;bottom=0;right=0;editable=1;overflow=hidden;" vertex="1" parent="rfaRZoywwaGYxJj0P569-34">
          <mxGeometry width="30" height="30" as="geometry" />
        </mxCell>
        <mxCell id="rfaRZoywwaGYxJj0P569-36" value="Row 2" style="shape=partialRectangle;connectable=0;fillColor=none;top=0;left=0;bottom=0;right=0;align=left;spacingLeft=6;overflow=hidden;" vertex="1" parent="rfaRZoywwaGYxJj0P569-34">
          <mxGeometry x="30" width="150" height="30" as="geometry" />
        </mxCell>
        <mxCell id="rfaRZoywwaGYxJj0P569-37" value="" style="shape=partialRectangle;collapsible=0;dropTarget=0;pointerEvents=0;fillColor=none;top=0;left=0;bottom=0;right=0;points=[[0,0.5],[1,0.5]];portConstraint=eastwest;" vertex="1" parent="rfaRZoywwaGYxJj0P569-27">
          <mxGeometry y="120" width="180" height="30" as="geometry" />
        </mxCell>
        <mxCell id="rfaRZoywwaGYxJj0P569-38" value="" style="shape=partialRectangle;connectable=0;fillColor=none;top=0;left=0;bottom=0;right=0;editable=1;overflow=hidden;" vertex="1" parent="rfaRZoywwaGYxJj0P569-37">
          <mxGeometry width="30" height="30" as="geometry" />
        </mxCell>
        <mxCell id="rfaRZoywwaGYxJj0P569-39" value="Row 3" style="shape=partialRectangle;connectable=0;fillColor=none;top=0;left=0;bottom=0;right=0;align=left;spacingLeft=6;overflow=hidden;" vertex="1" parent="rfaRZoywwaGYxJj0P569-37">
          <mxGeometry x="30" width="150" height="30" as="geometry" />
        </mxCell>
        <mxCell id="rfaRZoywwaGYxJj0P569-40" value="Transaction_Orders" style="shape=table;startSize=30;container=1;collapsible=1;childLayout=tableLayout;fixedRows=1;rowLines=0;fontStyle=1;align=center;resizeLast=1;" vertex="1" parent="1">
          <mxGeometry x="380" y="420" width="180" height="160" as="geometry" />
        </mxCell>
        <mxCell id="rfaRZoywwaGYxJj0P569-41" value="" style="shape=partialRectangle;collapsible=0;dropTarget=0;pointerEvents=0;fillColor=none;top=0;left=0;bottom=1;right=0;points=[[0,0.5],[1,0.5]];portConstraint=eastwest;" vertex="1" parent="rfaRZoywwaGYxJj0P569-40">
          <mxGeometry y="30" width="180" height="30" as="geometry" />
        </mxCell>
        <mxCell id="rfaRZoywwaGYxJj0P569-42" value="PK" style="shape=partialRectangle;connectable=0;fillColor=none;top=0;left=0;bottom=0;right=0;fontStyle=1;overflow=hidden;" vertex="1" parent="rfaRZoywwaGYxJj0P569-41">
          <mxGeometry width="30" height="30" as="geometry" />
        </mxCell>
        <mxCell id="rfaRZoywwaGYxJj0P569-43" value="OrderId int NOT NULL" style="shape=partialRectangle;connectable=0;fillColor=none;top=0;left=0;bottom=0;right=0;align=left;spacingLeft=6;fontStyle=5;overflow=hidden;" vertex="1" parent="rfaRZoywwaGYxJj0P569-41">
          <mxGeometry x="30" width="150" height="30" as="geometry" />
        </mxCell>
        <mxCell id="rfaRZoywwaGYxJj0P569-44" value="" style="shape=partialRectangle;collapsible=0;dropTarget=0;pointerEvents=0;fillColor=none;top=0;left=0;bottom=0;right=0;points=[[0,0.5],[1,0.5]];portConstraint=eastwest;" vertex="1" parent="rfaRZoywwaGYxJj0P569-40">
          <mxGeometry y="60" width="180" height="30" as="geometry" />
        </mxCell>
        <mxCell id="rfaRZoywwaGYxJj0P569-45" value="" style="shape=partialRectangle;connectable=0;fillColor=none;top=0;left=0;bottom=0;right=0;editable=1;overflow=hidden;" vertex="1" parent="rfaRZoywwaGYxJj0P569-44">
          <mxGeometry width="30" height="30" as="geometry" />
        </mxCell>
        <mxCell id="rfaRZoywwaGYxJj0P569-46" value="Row 1" style="shape=partialRectangle;connectable=0;fillColor=none;top=0;left=0;bottom=0;right=0;align=left;spacingLeft=6;overflow=hidden;" vertex="1" parent="rfaRZoywwaGYxJj0P569-44">
          <mxGeometry x="30" width="150" height="30" as="geometry" />
        </mxCell>
        <mxCell id="rfaRZoywwaGYxJj0P569-47" value="" style="shape=partialRectangle;collapsible=0;dropTarget=0;pointerEvents=0;fillColor=none;top=0;left=0;bottom=0;right=0;points=[[0,0.5],[1,0.5]];portConstraint=eastwest;" vertex="1" parent="rfaRZoywwaGYxJj0P569-40">
          <mxGeometry y="90" width="180" height="30" as="geometry" />
        </mxCell>
        <mxCell id="rfaRZoywwaGYxJj0P569-48" value="" style="shape=partialRectangle;connectable=0;fillColor=none;top=0;left=0;bottom=0;right=0;editable=1;overflow=hidden;" vertex="1" parent="rfaRZoywwaGYxJj0P569-47">
          <mxGeometry width="30" height="30" as="geometry" />
        </mxCell>
        <mxCell id="rfaRZoywwaGYxJj0P569-49" value="Row 2" style="shape=partialRectangle;connectable=0;fillColor=none;top=0;left=0;bottom=0;right=0;align=left;spacingLeft=6;overflow=hidden;" vertex="1" parent="rfaRZoywwaGYxJj0P569-47">
          <mxGeometry x="30" width="150" height="30" as="geometry" />
        </mxCell>
        <mxCell id="rfaRZoywwaGYxJj0P569-50" value="" style="shape=partialRectangle;collapsible=0;dropTarget=0;pointerEvents=0;fillColor=none;top=0;left=0;bottom=0;right=0;points=[[0,0.5],[1,0.5]];portConstraint=eastwest;" vertex="1" parent="rfaRZoywwaGYxJj0P569-40">
          <mxGeometry y="120" width="180" height="30" as="geometry" />
        </mxCell>
        <mxCell id="rfaRZoywwaGYxJj0P569-51" value="" style="shape=partialRectangle;connectable=0;fillColor=none;top=0;left=0;bottom=0;right=0;editable=1;overflow=hidden;" vertex="1" parent="rfaRZoywwaGYxJj0P569-50">
          <mxGeometry width="30" height="30" as="geometry" />
        </mxCell>
        <mxCell id="rfaRZoywwaGYxJj0P569-52" value="Row 3" style="shape=partialRectangle;connectable=0;fillColor=none;top=0;left=0;bottom=0;right=0;align=left;spacingLeft=6;overflow=hidden;" vertex="1" parent="rfaRZoywwaGYxJj0P569-50">
          <mxGeometry x="30" width="150" height="30" as="geometry" />
        </mxCell>
        <mxCell id="rfaRZoywwaGYxJj0P569-53" value="Products" style="shape=table;startSize=30;container=1;collapsible=1;childLayout=tableLayout;fixedRows=1;rowLines=0;fontStyle=1;align=center;resizeLast=1;" vertex="1" parent="1">
          <mxGeometry x="640" y="170" width="190" height="160" as="geometry" />
        </mxCell>
        <mxCell id="rfaRZoywwaGYxJj0P569-54" value="" style="shape=partialRectangle;collapsible=0;dropTarget=0;pointerEvents=0;fillColor=none;top=0;left=0;bottom=1;right=0;points=[[0,0.5],[1,0.5]];portConstraint=eastwest;" vertex="1" parent="rfaRZoywwaGYxJj0P569-53">
          <mxGeometry y="30" width="190" height="30" as="geometry" />
        </mxCell>
        <mxCell id="rfaRZoywwaGYxJj0P569-55" value="PK" style="shape=partialRectangle;connectable=0;fillColor=none;top=0;left=0;bottom=0;right=0;fontStyle=1;overflow=hidden;" vertex="1" parent="rfaRZoywwaGYxJj0P569-54">
          <mxGeometry width="30" height="30" as="geometry" />
        </mxCell>
        <mxCell id="rfaRZoywwaGYxJj0P569-56" value="ProductId int NOT NULL" style="shape=partialRectangle;connectable=0;fillColor=none;top=0;left=0;bottom=0;right=0;align=left;spacingLeft=6;fontStyle=5;overflow=hidden;" vertex="1" parent="rfaRZoywwaGYxJj0P569-54">
          <mxGeometry x="30" width="160" height="30" as="geometry" />
        </mxCell>
        <mxCell id="rfaRZoywwaGYxJj0P569-57" value="" style="shape=partialRectangle;collapsible=0;dropTarget=0;pointerEvents=0;fillColor=none;top=0;left=0;bottom=0;right=0;points=[[0,0.5],[1,0.5]];portConstraint=eastwest;" vertex="1" parent="rfaRZoywwaGYxJj0P569-53">
          <mxGeometry y="60" width="190" height="30" as="geometry" />
        </mxCell>
        <mxCell id="rfaRZoywwaGYxJj0P569-58" value="" style="shape=partialRectangle;connectable=0;fillColor=none;top=0;left=0;bottom=0;right=0;editable=1;overflow=hidden;" vertex="1" parent="rfaRZoywwaGYxJj0P569-57">
          <mxGeometry width="30" height="30" as="geometry" />
        </mxCell>
        <mxCell id="rfaRZoywwaGYxJj0P569-59" value="id_category int NOT NULL" style="shape=partialRectangle;connectable=0;fillColor=none;top=0;left=0;bottom=0;right=0;align=left;spacingLeft=6;overflow=hidden;" vertex="1" parent="rfaRZoywwaGYxJj0P569-57">
          <mxGeometry x="30" width="160" height="30" as="geometry" />
        </mxCell>
        <mxCell id="rfaRZoywwaGYxJj0P569-60" value="" style="shape=partialRectangle;collapsible=0;dropTarget=0;pointerEvents=0;fillColor=none;top=0;left=0;bottom=0;right=0;points=[[0,0.5],[1,0.5]];portConstraint=eastwest;" vertex="1" parent="rfaRZoywwaGYxJj0P569-53">
          <mxGeometry y="90" width="190" height="30" as="geometry" />
        </mxCell>
        <mxCell id="rfaRZoywwaGYxJj0P569-61" value="" style="shape=partialRectangle;connectable=0;fillColor=none;top=0;left=0;bottom=0;right=0;editable=1;overflow=hidden;" vertex="1" parent="rfaRZoywwaGYxJj0P569-60">
          <mxGeometry width="30" height="30" as="geometry" />
        </mxCell>
        <mxCell id="rfaRZoywwaGYxJj0P569-62" value="productName varchar(75) NOT NULL" style="shape=partialRectangle;connectable=0;fillColor=none;top=0;left=0;bottom=0;right=0;align=left;spacingLeft=6;overflow=hidden;" vertex="1" parent="rfaRZoywwaGYxJj0P569-60">
          <mxGeometry x="30" width="160" height="30" as="geometry" />
        </mxCell>
        <mxCell id="rfaRZoywwaGYxJj0P569-63" value="" style="shape=partialRectangle;collapsible=0;dropTarget=0;pointerEvents=0;fillColor=none;top=0;left=0;bottom=0;right=0;points=[[0,0.5],[1,0.5]];portConstraint=eastwest;" vertex="1" parent="rfaRZoywwaGYxJj0P569-53">
          <mxGeometry y="120" width="190" height="30" as="geometry" />
        </mxCell>
        <mxCell id="rfaRZoywwaGYxJj0P569-64" value="" style="shape=partialRectangle;connectable=0;fillColor=none;top=0;left=0;bottom=0;right=0;editable=1;overflow=hidden;" vertex="1" parent="rfaRZoywwaGYxJj0P569-63">
          <mxGeometry width="30" height="30" as="geometry" />
        </mxCell>
        <mxCell id="rfaRZoywwaGYxJj0P569-65" value="productStock int NOT NULL" style="shape=partialRectangle;connectable=0;fillColor=none;top=0;left=0;bottom=0;right=0;align=left;spacingLeft=6;overflow=hidden;" vertex="1" parent="rfaRZoywwaGYxJj0P569-63">
          <mxGeometry x="30" width="160" height="30" as="geometry" />
        </mxCell>
        <mxCell id="rfaRZoywwaGYxJj0P569-66" value="Categories" style="shape=table;startSize=30;container=1;collapsible=1;childLayout=tableLayout;fixedRows=1;rowLines=0;fontStyle=1;align=center;resizeLast=1;" vertex="1" parent="1">
          <mxGeometry x="620" y="410" width="180" height="100" as="geometry" />
        </mxCell>
        <mxCell id="rfaRZoywwaGYxJj0P569-67" value="" style="shape=partialRectangle;collapsible=0;dropTarget=0;pointerEvents=0;fillColor=none;top=0;left=0;bottom=1;right=0;points=[[0,0.5],[1,0.5]];portConstraint=eastwest;" vertex="1" parent="rfaRZoywwaGYxJj0P569-66">
          <mxGeometry y="30" width="180" height="30" as="geometry" />
        </mxCell>
        <mxCell id="rfaRZoywwaGYxJj0P569-68" value="PK" style="shape=partialRectangle;connectable=0;fillColor=none;top=0;left=0;bottom=0;right=0;fontStyle=1;overflow=hidden;" vertex="1" parent="rfaRZoywwaGYxJj0P569-67">
          <mxGeometry width="30" height="30" as="geometry" />
        </mxCell>
        <mxCell id="rfaRZoywwaGYxJj0P569-69" value="CategoryId int NOT NULL" style="shape=partialRectangle;connectable=0;fillColor=none;top=0;left=0;bottom=0;right=0;align=left;spacingLeft=6;fontStyle=5;overflow=hidden;" vertex="1" parent="rfaRZoywwaGYxJj0P569-67">
          <mxGeometry x="30" width="150" height="30" as="geometry" />
        </mxCell>
        <mxCell id="rfaRZoywwaGYxJj0P569-70" value="" style="shape=partialRectangle;collapsible=0;dropTarget=0;pointerEvents=0;fillColor=none;top=0;left=0;bottom=0;right=0;points=[[0,0.5],[1,0.5]];portConstraint=eastwest;" vertex="1" parent="rfaRZoywwaGYxJj0P569-66">
          <mxGeometry y="60" width="180" height="30" as="geometry" />
        </mxCell>
        <mxCell id="rfaRZoywwaGYxJj0P569-71" value="" style="shape=partialRectangle;connectable=0;fillColor=none;top=0;left=0;bottom=0;right=0;editable=1;overflow=hidden;" vertex="1" parent="rfaRZoywwaGYxJj0P569-70">
          <mxGeometry width="30" height="30" as="geometry" />
        </mxCell>
        <mxCell id="rfaRZoywwaGYxJj0P569-72" value="category varchar NOT NULL" style="shape=partialRectangle;connectable=0;fillColor=none;top=0;left=0;bottom=0;right=0;align=left;spacingLeft=6;overflow=hidden;" vertex="1" parent="rfaRZoywwaGYxJj0P569-70">
          <mxGeometry x="30" width="150" height="30" as="geometry" />
        </mxCell>
        <mxCell id="rfaRZoywwaGYxJj0P569-79" value="Table" style="shape=table;startSize=30;container=1;collapsible=1;childLayout=tableLayout;fixedRows=1;rowLines=0;fontStyle=1;align=center;resizeLast=1;" vertex="1" parent="1">
          <mxGeometry x="530" y="610" width="180" height="160" as="geometry" />
        </mxCell>
        <mxCell id="rfaRZoywwaGYxJj0P569-80" value="" style="shape=partialRectangle;collapsible=0;dropTarget=0;pointerEvents=0;fillColor=none;top=0;left=0;bottom=1;right=0;points=[[0,0.5],[1,0.5]];portConstraint=eastwest;" vertex="1" parent="rfaRZoywwaGYxJj0P569-79">
          <mxGeometry y="30" width="180" height="30" as="geometry" />
        </mxCell>
        <mxCell id="rfaRZoywwaGYxJj0P569-81" value="PK" style="shape=partialRectangle;connectable=0;fillColor=none;top=0;left=0;bottom=0;right=0;fontStyle=1;overflow=hidden;" vertex="1" parent="rfaRZoywwaGYxJj0P569-80">
          <mxGeometry width="30" height="30" as="geometry" />
        </mxCell>
        <mxCell id="rfaRZoywwaGYxJj0P569-82" value="UniqueID" style="shape=partialRectangle;connectable=0;fillColor=none;top=0;left=0;bottom=0;right=0;align=left;spacingLeft=6;fontStyle=5;overflow=hidden;" vertex="1" parent="rfaRZoywwaGYxJj0P569-80">
          <mxGeometry x="30" width="150" height="30" as="geometry" />
        </mxCell>
        <mxCell id="rfaRZoywwaGYxJj0P569-83" value="" style="shape=partialRectangle;collapsible=0;dropTarget=0;pointerEvents=0;fillColor=none;top=0;left=0;bottom=0;right=0;points=[[0,0.5],[1,0.5]];portConstraint=eastwest;" vertex="1" parent="rfaRZoywwaGYxJj0P569-79">
          <mxGeometry y="60" width="180" height="30" as="geometry" />
        </mxCell>
        <mxCell id="rfaRZoywwaGYxJj0P569-84" value="" style="shape=partialRectangle;connectable=0;fillColor=none;top=0;left=0;bottom=0;right=0;editable=1;overflow=hidden;" vertex="1" parent="rfaRZoywwaGYxJj0P569-83">
          <mxGeometry width="30" height="30" as="geometry" />
        </mxCell>
        <mxCell id="rfaRZoywwaGYxJj0P569-85" value="Row 1" style="shape=partialRectangle;connectable=0;fillColor=none;top=0;left=0;bottom=0;right=0;align=left;spacingLeft=6;overflow=hidden;" vertex="1" parent="rfaRZoywwaGYxJj0P569-83">
          <mxGeometry x="30" width="150" height="30" as="geometry" />
        </mxCell>
        <mxCell id="rfaRZoywwaGYxJj0P569-86" value="" style="shape=partialRectangle;collapsible=0;dropTarget=0;pointerEvents=0;fillColor=none;top=0;left=0;bottom=0;right=0;points=[[0,0.5],[1,0.5]];portConstraint=eastwest;" vertex="1" parent="rfaRZoywwaGYxJj0P569-79">
          <mxGeometry y="90" width="180" height="30" as="geometry" />
        </mxCell>
        <mxCell id="rfaRZoywwaGYxJj0P569-87" value="" style="shape=partialRectangle;connectable=0;fillColor=none;top=0;left=0;bottom=0;right=0;editable=1;overflow=hidden;" vertex="1" parent="rfaRZoywwaGYxJj0P569-86">
          <mxGeometry width="30" height="30" as="geometry" />
        </mxCell>
        <mxCell id="rfaRZoywwaGYxJj0P569-88" value="Row 2" style="shape=partialRectangle;connectable=0;fillColor=none;top=0;left=0;bottom=0;right=0;align=left;spacingLeft=6;overflow=hidden;" vertex="1" parent="rfaRZoywwaGYxJj0P569-86">
          <mxGeometry x="30" width="150" height="30" as="geometry" />
        </mxCell>
        <mxCell id="rfaRZoywwaGYxJj0P569-89" value="" style="shape=partialRectangle;collapsible=0;dropTarget=0;pointerEvents=0;fillColor=none;top=0;left=0;bottom=0;right=0;points=[[0,0.5],[1,0.5]];portConstraint=eastwest;" vertex="1" parent="rfaRZoywwaGYxJj0P569-79">
          <mxGeometry y="120" width="180" height="30" as="geometry" />
        </mxCell>
        <mxCell id="rfaRZoywwaGYxJj0P569-90" value="" style="shape=partialRectangle;connectable=0;fillColor=none;top=0;left=0;bottom=0;right=0;editable=1;overflow=hidden;" vertex="1" parent="rfaRZoywwaGYxJj0P569-89">
          <mxGeometry width="30" height="30" as="geometry" />
        </mxCell>
        <mxCell id="rfaRZoywwaGYxJj0P569-91" value="Row 3" style="shape=partialRectangle;connectable=0;fillColor=none;top=0;left=0;bottom=0;right=0;align=left;spacingLeft=6;overflow=hidden;" vertex="1" parent="rfaRZoywwaGYxJj0P569-89">
          <mxGeometry x="30" width="150" height="30" as="geometry" />
        </mxCell>
      </root>
    </mxGraphModel>
  </diagram>
</mxfile>
